<svg width="69" height="59" viewBox="0 0 69 59" fill="none" xmlns="http://www.w3.org/2000/svg">
<path fill-rule="evenodd" clip-rule="evenodd" d="M25.0102 2C12.302 2 2 12.302 2 25.0102C2 34.4944 7.73793 42.6384 15.9317 46.1602L17.24 56.9999L25.3204 48.0204H44.466C57.1742 48.0204 67.4762 37.7184 67.4762 25.0102C67.4762 12.302 57.1742 2 44.466 2H25.0102Z" fill="white"/>
<path d="M15.9317 46.1602L17.4022 45.9827C17.339 45.4586 17.0016 45.0078 16.5166 44.7994L15.9317 46.1602ZM17.24 56.9999L15.7694 57.1774C15.839 57.7542 16.2394 58.237 16.7933 58.4122C17.3472 58.5873 17.9524 58.4226 18.341 57.9907L17.24 56.9999ZM25.3204 48.0204V46.5392C24.9005 46.5392 24.5003 46.7175 24.2194 47.0296L25.3204 48.0204ZM3.4812 25.0102C3.4812 13.1201 13.1201 3.4812 25.0102 3.4812V0.518796C11.484 0.518796 0.518796 11.484 0.518796 25.0102H3.4812ZM16.5166 44.7994C8.84725 41.503 3.4812 33.8816 3.4812 25.0102H0.518796C0.518796 35.1072 6.62861 43.7738 15.3468 47.521L16.5166 44.7994ZM18.7105 56.8224L17.4022 45.9827L14.4612 46.3377L15.7694 57.1774L18.7105 56.8224ZM24.2194 47.0296L16.1389 56.0091L18.341 57.9907L26.4215 49.0112L24.2194 47.0296ZM44.466 46.5392H25.3204V49.5016H44.466V46.5392ZM65.995 25.0102C65.995 36.9003 56.3561 46.5392 44.466 46.5392V49.5016C57.9922 49.5016 68.9574 38.5364 68.9574 25.0102H65.995ZM44.466 3.4812C56.3561 3.4812 65.995 13.1201 65.995 25.0102H68.9574C68.9574 11.484 57.9922 0.518796 44.466 0.518796V3.4812ZM25.0102 3.4812H44.466V0.518796H25.0102V3.4812Z" fill="black"/>
<path d="M20.1841 32.0713H17.0765L21.8913 18.1832H25.5935L30.3892 32.0713H27.3008L26.2649 28.8678H21.2391L20.1841 32.0713ZM21.9681 26.6235H25.536L23.7904 21.3099H23.6945L21.9681 26.6235ZM32.1586 32.0713V18.1832H35.0359V29.6927H41.0209V32.0713H32.1586ZM43.078 32.0713V18.1832H45.9554V29.6927H51.9403V32.0713H43.078Z" fill="black"/>
</svg>
