<svg width="69" height="59" viewBox="0 0 69 59" fill="none" xmlns="http://www.w3.org/2000/svg">
<path fill-rule="evenodd" clip-rule="evenodd" d="M25.1067 2.24243C12.4122 2.24243 2.12122 12.5334 2.12122 25.2279C2.12122 34.6696 7.81398 42.7817 15.9544 46.3191L17.2581 57.1835L25.2839 48.2134H44.1679C56.8624 48.2134 67.1534 37.9225 67.1534 25.2279C67.1534 12.5334 56.8624 2.24243 44.1678 2.24243H25.1067Z" fill="white"/>
<path d="M15.9544 46.3191L17.4072 46.1447C17.3452 45.6287 17.0142 45.1842 16.5375 44.9771L15.9544 46.3191ZM17.2581 57.1835L15.8053 57.3578C15.8738 57.9286 16.2701 58.4063 16.8184 58.5791C17.3666 58.7518 17.9652 58.5875 18.3485 58.1592L17.2581 57.1835ZM25.2839 48.2134V46.7502C24.8676 46.7502 24.471 46.9275 24.1935 47.2378L25.2839 48.2134ZM3.58444 25.2279C3.58444 13.3415 13.2203 3.70566 25.1067 3.70566V0.779208C11.6041 0.779208 0.657992 11.7253 0.657992 25.2279H3.58444ZM16.5375 44.9771C8.9123 41.6636 3.58444 34.0663 3.58444 25.2279H0.657992C0.657992 35.273 6.71566 43.8999 15.3712 47.6611L16.5375 44.9771ZM18.7109 57.0092L17.4072 46.1447L14.5016 46.4934L15.8053 57.3578L18.7109 57.0092ZM24.1935 47.2378L16.1676 56.2078L18.3485 58.1592L26.3744 49.1891L24.1935 47.2378ZM44.1679 46.7502H25.2839V49.6767H44.1679V46.7502ZM65.6902 25.2279C65.6902 37.1144 56.0543 46.7502 44.1679 46.7502V49.6767C57.6705 49.6767 68.6166 38.7306 68.6166 25.2279H65.6902ZM44.1678 3.70566C56.0543 3.70566 65.6902 13.3415 65.6902 25.2279H68.6166C68.6166 11.7253 57.6705 0.779208 44.1678 0.779208V3.70566ZM25.1067 3.70566H44.1678V0.779208H25.1067V3.70566Z" fill="black"/>
<path d="M17.4513 37.8335C17.4513 19.6346 51.215 19.6346 51.215 37.8335" stroke="black" stroke-width="2.8735" stroke-linecap="round"/>
<path d="M52.1005 7.82544C46.0756 18.5532 48.4555 21.7759 52.1347 21.8495C55.2988 21.7759 57.8007 18.6854 52.1005 7.82544Z" fill="#7494FF"/>
</svg>
