<svg width="69" height="59" viewBox="0 0 69 59" fill="none" xmlns="http://www.w3.org/2000/svg">
<path fill-rule="evenodd" clip-rule="evenodd" d="M24.9855 2.24243C12.291 2.24243 2 12.5334 2 25.2279C2 34.6696 7.69276 42.7817 15.8331 46.3191L17.1369 57.1835L25.1627 48.2134H44.0466C56.7412 48.2134 67.0322 37.9225 67.0322 25.2279C67.0322 12.5334 56.7412 2.24243 44.0466 2.24243H24.9855Z" fill="white"/>
<path d="M15.8331 46.3191L17.2859 46.1447C17.224 45.6287 16.893 45.1842 16.4163 44.9771L15.8331 46.3191ZM17.1369 57.1835L15.6841 57.3578C15.7525 57.9286 16.1489 58.4063 16.6971 58.5791C17.2454 58.7518 17.844 58.5875 18.2273 58.1592L17.1369 57.1835ZM25.1627 48.2134V46.7502C24.7464 46.7502 24.3498 46.9275 24.0722 47.2378L25.1627 48.2134ZM3.46322 25.2279C3.46322 13.3415 13.0991 3.70566 24.9855 3.70566V0.779208C11.4828 0.779208 0.536777 11.7253 0.536777 25.2279H3.46322ZM16.4163 44.9771C8.79108 41.6636 3.46322 34.0663 3.46322 25.2279H0.536777C0.536777 35.273 6.59443 43.8999 15.25 47.6611L16.4163 44.9771ZM18.5897 57.0092L17.2859 46.1447L14.3803 46.4934L15.6841 57.3578L18.5897 57.0092ZM24.0722 47.2378L16.0464 56.2078L18.2273 58.1592L26.2531 49.1891L24.0722 47.2378ZM44.0466 46.7502H25.1627V49.6767H44.0466V46.7502ZM65.5689 25.2279C65.5689 37.1144 55.9331 46.7502 44.0466 46.7502V49.6767C57.5493 49.6767 68.4954 38.7306 68.4954 25.2279H65.5689ZM44.0466 3.70566C55.9331 3.70566 65.5689 13.3415 65.5689 25.2279H68.4954C68.4954 11.7253 57.5493 0.779208 44.0466 0.779208V3.70566ZM24.9855 3.70566H44.0466V0.779208H24.9855V3.70566Z" fill="black"/>
<path fill-rule="evenodd" clip-rule="evenodd" d="M45.3725 31.4224C45.2463 31.5206 45.102 31.593 44.9478 31.6354C44.7936 31.6778 44.6326 31.6893 44.4739 31.6694C44.3153 31.6496 44.1621 31.5986 44.0231 31.5195C43.8842 31.4403 43.7622 31.3346 43.6641 31.2083L40.6293 27.3071C40.2328 26.7965 39.6856 26.4237 39.0653 26.2415C38.445 26.0594 37.7831 26.0771 37.1735 26.2922L37.7904 27.0698L42.9036 32.183C43.1252 32.4125 43.2479 32.7198 43.2451 33.0389C43.2423 33.3579 43.1144 33.6631 42.8887 33.8887C42.6631 34.1144 42.3579 34.2423 42.0389 34.2451C41.7198 34.2479 41.4125 34.1252 41.183 33.9036L36.0698 28.7904L35.291 28.1735C35.076 28.7832 35.0585 29.4452 35.2409 30.0655C35.4232 30.6858 35.7963 31.2329 36.3071 31.6293L40.2095 34.6641C40.4562 34.8649 40.6144 35.1544 40.6503 35.4704C40.6862 35.7865 40.5969 36.104 40.4016 36.3551C40.2062 36.6061 39.9203 36.7707 39.6051 36.8135C39.2899 36.8564 38.9705 36.7741 38.7152 36.5843L34.8128 33.5495C33.7888 32.7528 33.0783 31.6208 32.8062 30.3524C32.534 29.0839 32.7176 27.76 33.3246 26.6135L25.078 20.0729C24.7636 19.8239 24.5054 19.5111 24.3205 19.1552C24.1355 18.7993 24.0279 18.4083 24.0047 18.0079C23.9816 17.6075 24.0434 17.2066 24.1861 16.8318C24.3289 16.457 24.5493 16.1165 24.8329 15.8329C25.1165 15.5493 25.457 15.3289 25.8318 15.1861C26.2066 15.0434 26.6075 14.9816 27.0079 15.0047C27.4083 15.0279 27.7993 15.1355 28.1552 15.3205C28.5111 15.5054 28.8239 15.7636 29.0729 16.078L35.6135 24.3246C36.76 23.7176 38.0839 23.534 39.3524 23.8062C40.6208 24.0783 41.7528 24.7888 42.5495 25.8128L45.5855 29.7152C45.7834 29.97 45.8721 30.293 45.8319 30.6132C45.7918 30.9333 45.6273 31.2244 45.3725 31.4224Z" fill="#EE5460"/>
</svg>
