<svg width="69" height="59" viewBox="0 0 69 59" fill="none" xmlns="http://www.w3.org/2000/svg">
<path fill-rule="evenodd" clip-rule="evenodd" d="M24.9855 2.24243C12.291 2.24243 2 12.5334 2 25.2279C2 34.6696 7.69276 42.7817 15.8331 46.3191L17.1369 57.1835L25.1627 48.2134H44.0466C56.7412 48.2134 67.0322 37.9225 67.0322 25.2279C67.0322 12.5334 56.7412 2.24243 44.0466 2.24243H24.9855Z" fill="white"/>
<path d="M15.8331 46.3191L17.2859 46.1447C17.224 45.6287 16.893 45.1842 16.4163 44.9771L15.8331 46.3191ZM17.1369 57.1835L15.6841 57.3578C15.7526 57.9286 16.1489 58.4063 16.6971 58.5791C17.2454 58.7518 17.844 58.5875 18.2273 58.1592L17.1369 57.1835ZM25.1627 48.2134V46.7502C24.7464 46.7502 24.3498 46.9275 24.0722 47.2378L25.1627 48.2134ZM3.46322 25.2279C3.46322 13.3415 13.0991 3.70566 24.9855 3.70566V0.779208C11.4829 0.779208 0.536777 11.7253 0.536777 25.2279H3.46322ZM16.4163 44.9771C8.79108 41.6636 3.46322 34.0663 3.46322 25.2279H0.536777C0.536777 35.273 6.59443 43.8999 15.25 47.6611L16.4163 44.9771ZM18.5897 57.0092L17.2859 46.1447L14.3803 46.4934L15.6841 57.3578L18.5897 57.0092ZM24.0722 47.2378L16.0464 56.2078L18.2273 58.1592L26.2531 49.1891L24.0722 47.2378ZM44.0466 46.7502H25.1627V49.6767H44.0466V46.7502ZM65.5689 25.2279C65.5689 37.1144 55.9331 46.7502 44.0466 46.7502V49.6767C57.5493 49.6767 68.4954 38.7306 68.4954 25.2279H65.5689ZM44.0466 3.70566C55.9331 3.70566 65.5689 13.3415 65.5689 25.2279H68.4954C68.4954 11.7253 57.5493 0.779208 44.0466 0.779208V3.70566ZM24.9855 3.70566H44.0466V0.779208H24.9855V3.70566Z" fill="black"/>
<path d="M30.3333 20.6719C30.3333 18.8333 31.8281 17.3385 33.6667 17.3385H35.3333C37.1719 17.3385 38.6667 18.8333 38.6667 20.6719V20.8594C38.6667 21.9948 38.0885 23.0521 37.1354 23.6615L34.9375 25.0729C34.2922 25.4878 33.7613 26.0581 33.3937 26.7315C33.026 27.4049 32.8334 28.1599 32.8333 28.9271V29C32.8333 29.9219 33.5781 30.6667 34.5 30.6667C35.4219 30.6667 36.1667 29.9219 36.1667 29V28.9271C36.1667 28.5 36.3854 28.1042 36.7396 27.875L38.9375 26.4635C40.8437 25.2344 42 23.125 42 20.8542V20.6667C42 16.9844 39.0156 14 35.3333 14H33.6667C29.9844 14.0052 27 16.9896 27 20.6719C27 21.5938 27.7448 22.3385 28.6667 22.3385C29.5885 22.3385 30.3333 21.5938 30.3333 20.6719ZM34.5 37.3385C35.0525 37.3385 35.5824 37.119 35.9731 36.7283C36.3638 36.3376 36.5833 35.8077 36.5833 35.2552C36.5833 34.7027 36.3638 34.1728 35.9731 33.7821C35.5824 33.3914 35.0525 33.1719 34.5 33.1719C33.9475 33.1719 33.4176 33.3914 33.0269 33.7821C32.6362 34.1728 32.4167 34.7027 32.4167 35.2552C32.4167 35.8077 32.6362 36.3376 33.0269 36.7283C33.4176 37.119 33.9475 37.3385 34.5 37.3385Z" fill="#EE5460"/>
</svg>
