<svg width="69" height="59" viewBox="0 0 69 59" fill="none" xmlns="http://www.w3.org/2000/svg">
<path fill-rule="evenodd" clip-rule="evenodd" d="M24.9855 2C12.291 2 2 12.291 2 24.9855C2 34.4272 7.6927 42.5392 15.833 46.0766L17.1367 56.9409L25.1624 47.971H44.0466C56.7412 47.971 67.0322 37.6801 67.0322 24.9855C67.0322 12.291 56.7412 2 44.0466 2H24.9855Z" fill="white"/>
<path d="M15.833 46.0766L17.2858 45.9022C17.2239 45.3862 16.8929 44.9417 16.4162 44.7346L15.833 46.0766ZM17.1367 56.9409L15.6839 57.1152C15.7524 57.6859 16.1487 58.1637 16.697 58.3365C17.2453 58.5092 17.8439 58.3449 18.2272 57.9165L17.1367 56.9409ZM25.1624 47.971V46.5078C24.7461 46.5078 24.3495 46.6851 24.0719 46.9953L25.1624 47.971ZM3.46322 24.9855C3.46322 13.0991 13.0991 3.46322 24.9855 3.46322V0.536777C11.4829 0.536777 0.536777 11.4828 0.536777 24.9855H3.46322ZM16.4162 44.7346C8.79103 41.4211 3.46322 33.8238 3.46322 24.9855H0.536777C0.536777 35.0305 6.59437 43.6573 15.2498 47.4186L16.4162 44.7346ZM18.5895 56.7665L17.2858 45.9022L14.3802 46.2509L15.6839 57.1152L18.5895 56.7665ZM24.0719 46.9953L16.0463 55.9652L18.2272 57.9165L26.2528 48.9467L24.0719 46.9953ZM44.0466 46.5078H25.1624V49.4342H44.0466V46.5078ZM65.5689 24.9855C65.5689 36.8719 55.9331 46.5078 44.0466 46.5078V49.4342C57.5493 49.4342 68.4954 38.4882 68.4954 24.9855H65.5689ZM44.0466 3.46322C55.9331 3.46322 65.5689 13.0991 65.5689 24.9855H68.4954C68.4954 11.4828 57.5493 0.536777 44.0466 0.536777V3.46322ZM24.9855 3.46322H44.0466V0.536777H24.9855V3.46322Z" fill="black"/>
<path d="M17.1367 20.5855C17.1367 39.1212 51.5253 39.1212 51.5253 20.5855" stroke="black" stroke-width="2.92669" stroke-linecap="round"/>
<path d="M56.6727 35.9143C54.689 37.9707 49.9004 40.2632 45.1561 32.8754L45.1858 32.8521C46.6335 31.7166 50.3213 28.8242 51.7763 24.8501C58.1315 28.247 59.6397 31.4351 56.6727 35.9143Z" fill="#EE5460" stroke="#EE5460" stroke-width="0.731673" stroke-linejoin="round"/>
</svg>
